Coordinates
version=1
nRows=10
nColumns=63
inDegrees=yes

Units are S.I. units (second, meters, Newtons, ...)
If the header above contains a line with 'inDegrees', this indicates whether rotational values are in degrees (yes) or radians (no).

endheader
time	pelvis_tilt	pelvis_list	pelvis_rotation	pelvis_tx	pelvis_ty	pelvis_tz	hip_flexion_r	hip_adduction_r	hip_rotation_r	knee_angle_r	knee_angle_r_beta	ankle_angle_r	subtalar_angle_r	mtp_angle_r	hip_flexion_l	hip_adduction_l	hip_rotation_l	knee_angle_l	knee_angle_l_beta	ankle_angle_l	subtalar_angle_l	mtp_angle_l	L5_S1_Flex_Ext	L5_S1_Lat_Bending	L5_S1_axial_rotation	L4_L5_Flex_Ext	L4_L5_Lat_Bending	L4_L5_axial_rotation	L3_L4_Flex_Ext	L3_L4_Lat_Bending	L3_L4_axial_rotation	L2_L3_Flex_Ext	L2_L3_Lat_Bending	L2_L3_axial_rotation	L1_L2_Flex_Ext	L1_L2_Lat_Bending	L1_L2_axial_rotation	L1_T12_Flex_Ext	L1_T12_Lat_Bending	L1_T12_axial_rotation	Abs_r3	Abs_r2	Abs_r1	Abs_t1	Abs_t2	neck_flexion	neck_bending	neck_rotation	arm_flex_r	arm_add_r	arm_rot_r	elbow_flex_r	pro_sup_r	wrist_flex_r	wrist_dev_r	arm_flex_l	arm_add_l	arm_rot_l	elbow_flex_l	pro_sup_l	wrist_flex_l	wrist_dev_l
2.101695	0.152869	-6.557107	90.277392	0.150665	0.858118	0.505853	9.080890	0.984310	2.703982	8.738507	0.152516	29.301478	-0.945870	0.000000	9.619572	-1.253728	4.617286	9.889508	0.172604	25.868232	-1.845996	0.000000	0.095693	0.173904	1.105697	0.177712	0.231292	1.174803	0.157215	0.422829	1.174803	0.109368	0.422829	0.967485	0.088861	0.354624	0.898379	0.054679	0.269377	0.829273	0.683528	1.967232	6.149556	0.000000	0.000000	-1.190290	3.252819	-7.505079	154.092636	-38.982057	71.268835	108.969157	66.877679	-9.484159	21.915663	135.940351	-32.313782	56.500011	104.297854	77.560648	-4.395695	14.437123
2.118644	0.238971	-6.579787	90.167554	0.150896	0.858278	0.505809	9.299224	1.079123	2.624484	9.117532	0.159131	29.363909	-0.832270	0.000000	9.602432	-1.338054	4.957536	9.836896	0.171686	25.728147	-2.580140	0.000000	0.088745	0.187752	1.148178	0.164809	0.249711	1.219939	0.145800	0.456501	1.219939	0.101427	0.456501	1.004655	0.082409	0.382864	0.932894	0.050709	0.290828	0.861133	0.633900	2.123892	6.385819	0.000000	0.000000	-1.218718	3.297756	-7.196559	154.324720	-39.173750	71.338587	109.389975	65.620651	-10.245522	21.490874	135.695985	-32.026703	55.939410	104.447227	77.661774	-3.871662	14.989555
2.135593	0.316556	-6.595245	90.041836	0.151081	0.858374	0.505753	9.521054	1.156678	2.509626	9.530027	0.166330	29.455157	-0.643619	0.000000	9.575726	-1.411945	5.247673	9.781377	0.170717	25.646688	-3.220180	0.000000	0.078529	0.201505	1.195429	0.145836	0.268002	1.270144	0.129015	0.489940	1.270144	0.089751	0.489940	1.046001	0.072922	0.410910	0.971286	0.044872	0.312132	0.896572	0.560925	2.279468	6.648620	0.000000	0.000000	-1.344796	3.367759	-6.829170	154.581086	-39.369782	71.413928	109.843223	64.467709	-11.045313	21.231092	135.353597	-31.741905	55.304887	104.618516	78.118532	-3.451924	15.551657
2.152542	0.384305	-6.598472	89.902681	0.151218	0.858390	0.505683	9.739082	1.218238	2.399268	9.972816	0.174058	29.564358	-0.443268	0.000000	9.539148	-1.470914	5.518908	9.735761	0.169921	25.607701	-3.810980	0.000000	0.066281	0.214538	1.253487	0.123090	0.285336	1.331830	0.108893	0.521629	1.331830	0.075752	0.521629	1.096802	0.061548	0.437487	1.018459	0.037873	0.332320	0.940116	0.473437	2.426901	6.971521	0.000000	0.000000	-1.543855	3.454627	-6.499035	154.885922	-39.601332	71.560932	110.323658	63.430324	-11.870296	21.022793	134.875875	-31.437877	54.600773	104.764597	78.797233	-3.118406	15.897458
2.169492	0.440279	-6.584072	89.759693	0.151326	0.858332	0.505568	9.925071	1.266884	2.349325	10.400016	0.181515	29.667660	-0.298895	0.000000	9.476771	-1.515581	5.768075	9.682955	0.168999	25.612086	-4.333335	0.000000	0.052871	0.226522	1.311098	0.098187	0.301274	1.393042	0.086862	0.550765	1.393042	0.060426	0.550765	1.147211	0.049096	0.461923	1.065267	0.030211	0.350882	0.983324	0.377653	2.562459	7.291936	0.000000	0.000000	-1.808892	3.554560	-6.170088	155.104749	-39.825626	71.626104	110.832083	62.671128	-12.628998	21.016469	134.365382	-31.196928	53.991888	104.955703	79.564331	-3.062561	16.171110
2.186441	0.492016	-6.550059	89.600920	0.151402	0.858206	0.505436	10.093451	1.310299	2.346847	10.840030	0.189194	29.784519	-0.192597	0.000000	9.396305	-1.555954	5.971757	9.649788	0.168421	25.659291	-4.784535	0.000000	0.039171	0.238713	1.375256	0.072744	0.317488	1.461209	0.064354	0.580406	1.461209	0.044768	0.580406	1.203349	0.036374	0.486783	1.117395	0.022382	0.369766	1.031442	0.279793	2.700366	7.648759	0.000000	0.000000	-2.119955	3.653087	-5.917155	155.250752	-40.060816	71.677791	111.366679	62.069157	-13.421678	21.096865	133.770326	-31.001022	53.417092	105.172069	80.430653	-3.172188	16.296546
2.203390	0.537571	-6.502135	89.451039	0.151413	0.858024	0.505274	10.221761	1.333961	2.262978	11.232437	0.196043	29.929138	0.039295	0.000000	9.293375	-1.585392	6.174280	9.612957	0.167778	25.707442	-5.201017	0.000000	0.026402	0.251495	1.444762	0.049032	0.334488	1.535059	0.043377	0.611485	1.535059	0.030175	0.611485	1.264166	0.024517	0.512849	1.173869	0.015086	0.389566	1.083571	0.188590	2.844961	8.035331	0.000000	0.000000	-2.461456	3.739760	-5.716192	155.412061	-40.305706	71.807231	111.930849	61.568872	-14.209919	21.302887	133.109294	-30.854770	52.879459	105.430110	81.349110	-3.409216	16.333275
2.220339	0.577832	-6.457413	89.311281	0.151405	0.857761	0.505129	10.326967	1.355488	2.227172	11.567941	0.201899	30.059845	0.211247	0.000000	9.200353	-1.621657	6.215286	9.599076	0.167535	25.812366	-5.345107	0.000000	0.016667	0.263906	1.516404	0.030952	0.350995	1.611179	0.027382	0.641660	1.611179	0.019048	0.641660	1.326853	0.015477	0.538157	1.232078	0.009523	0.408790	1.137303	0.119049	2.985355	8.433782	0.000000	0.000000	-2.809724	3.809592	-5.586806	155.548541	-40.561048	71.973229	112.502478	61.261107	-14.910106	21.616278	132.462248	-30.762024	52.472466	105.720627	82.187234	-3.877631	16.294945
2.237288	0.604484	-6.412501	89.187217	0.151398	0.857439	0.505004	10.399950	1.379719	2.383785	11.835711	0.206572	30.135981	0.113774	0.000000	9.109664	-1.643190	6.253637	9.597804	0.167513	25.923106	-5.460960	0.000000	0.009081	0.273703	1.585827	0.016865	0.364025	1.684941	0.014920	0.665481	1.684941	0.010379	0.665481	1.387598	0.008433	0.558135	1.288484	0.005189	0.423966	1.189370	0.064867	3.096182	8.819892	0.000000	0.000000	-3.154627	3.878180	-5.558555	155.621748	-40.840889	72.144279	113.094684	61.353517	-15.570218	22.065763	131.867000	-30.696053	52.173361	106.066864	82.998295	-4.470428	16.481868
2.254237	0.620453	-6.359812	89.102423	0.151364	0.857082	0.504933	10.426115	1.391039	2.497978	12.020571	0.209799	30.213069	0.041080	0.000000	9.023239	-1.662707	6.146035	9.614963	0.167813	26.078430	-5.318342	0.000000	0.001086	0.281949	1.651237	0.002018	0.374993	1.754440	0.001785	0.685532	1.754440	0.001242	0.685532	1.444833	0.001009	0.574951	1.341630	0.000621	0.436739	1.238428	0.007761	3.189467	9.183687	0.000000	0.000000	-3.454629	3.948050	-5.551985	155.737603	-41.137938	72.425821	113.674107	61.540397	-16.181257	22.560565	131.347382	-30.649790	51.975911	106.451098	83.801377	-5.129467	16.839872
